<?xml version="1.0" encoding="UTF-8" standalone="no"?>
<!DOCTYPE svg PUBLIC "-//W3C//DTD SVG 1.1//EN" "http://www.w3.org/Graphics/SVG/1.1/DTD/svg11.dtd">
<svg width="100%" height="100%" viewBox="0 0 4000 4000" version="1.1" xmlns="http://www.w3.org/2000/svg" xmlns:xlink="http://www.w3.org/1999/xlink" xml:space="preserve" xmlns:serif="http://www.serif.com/" style="fill-rule:evenodd;clip-rule:evenodd;stroke-linejoin:round;stroke-miterlimit:2;">
    <path d="M3750,650.336C3750,564.585 3705.6,484.948 3632.66,439.867C3559.71,394.785 3468.63,390.687 3391.93,429.036C2767.23,741.384 1476.53,1386.74 759.053,1745.47C662.645,1793.68 601.747,1892.21 601.747,2000C601.747,2107.79 662.645,2206.32 759.053,2254.53C1476.53,2613.26 2767.23,3258.62 3391.93,3570.96C3468.63,3609.31 3559.71,3605.22 3632.66,3560.13C3705.6,3515.05 3750,3435.41 3750,3349.66L3750,3349.66C3750,3288.61 3715.42,3232.83 3660.74,3205.67C3306.14,3029.56 1990.57,2376.17 1458.57,2111.95C1416.06,2090.84 1389.17,2047.47 1389.17,2000C1389.17,1952.53 1416.06,1909.16 1458.57,1888.05C1990.57,1623.83 3306.14,970.444 3660.74,794.332C3715.42,767.175 3750,711.389 3750,650.336L3750,650.336Z" style="fill:white;"/>
</svg>
