<?xml version="1.0" encoding="UTF-8" standalone="no"?><!DOCTYPE svg PUBLIC "-//W3C//DTD SVG 1.1//EN" "http://www.w3.org/Graphics/SVG/1.1/DTD/svg11.dtd"><svg width="100%" height="100%" viewBox="0 0 8000 4500" version="1.1" xmlns="http://www.w3.org/2000/svg" xmlns:xlink="http://www.w3.org/1999/xlink" xml:space="preserve" xmlns:serif="http://www.serif.com/" style="fill-rule:evenodd;clip-rule:evenodd;stroke-linejoin:round;stroke-miterlimit:2;"><path d="M1347.28,5071.38c943.937,887.059 5639.29,795.628 6769.23,-101.373c1129.94,-897.002 954.368,-4393.58 10.431,-5280.64c-943.938,-887.059 -4544.11,-938.722 -5674.06,-41.721c-1129.94,897.001 -2049.54,4536.67 -1105.61,5423.73Z" style="fill:#595959;"/><path d="M7240.37,-143.742c535.448,103.284 -954.367,706.756 -1251.63,1053.45c-250.894,292.619 -276.761,737.855 -531.943,1026.74c-281.617,318.814 -810.316,546.336 -1157.76,886.142c-351.152,343.435 -528.246,898.425 -949.153,1174.47c-443.285,290.721 -1116.76,477.163 -1710.56,569.855c-608.431,94.976 -1713.24,605.603 -1940.03,0c-302.477,-807.709 -1131.68,-4061.15 125.163,-4846.26c1256.85,-785.111 6388.53,-62.582 7415.91,135.593Z" style="fill:#808080;"/><path d="M5216.9,-185.463c521.484,144.337 -919.638,716.211 -1216.9,1074.32c-258.595,311.524 -268.837,806.605 -566.672,1074.32c-297.835,267.71 -845.831,293.922 -1220.34,531.943c-391.134,248.587 -803.129,731.856 -1126.47,959.583c-247.885,174.586 -573.663,232.562 -813.559,406.779c-239.896,174.218 -575.52,932.276 -625.815,638.527c-119.948,-700.565 -1022.16,-4061.01 -93.872,-4841.92c928.292,-780.91 4922.5,-48.674 5663.62,156.454Z" style="fill:#404040;"/><path d="M8095.65,1936.45c-225.989,-319.169 -966.536,568.782 -1324.64,886.142c-326.727,289.552 -495.028,731.005 -823.989,1018.02c-359.844,313.954 -1698.39,716.21 -1335.07,865.71c363.32,149.501 2934.38,492.936 3514.99,31.291c580.617,-461.645 194.697,-2481.99 -31.291,-2801.16Z" style="fill:#404040;"/><path d="M2974.4,-164.602c368.536,196.436 -810.082,761.408 -1136.9,1116.04c-294.751,319.837 -537.158,759.67 -823.989,1011.73c-257.214,226.037 -672.751,365.059 -897.002,500.652c-155.99,94.32 -415.83,492.245 -448.5,312.908c-81.704,-448.501 -592.786,-2513.69 -41.721,-3003.91c551.064,-490.221 2979.57,-133.855 3348.11,62.582Z" style="fill:#595959;"/></svg>