<?xml version="1.0" encoding="UTF-8" standalone="no"?>
<!DOCTYPE svg PUBLIC "-//W3C//DTD SVG 1.1//EN" "http://www.w3.org/Graphics/SVG/1.1/DTD/svg11.dtd">
<svg width="100%" height="100%" viewBox="0 0 4000 4000" version="1.1" xmlns="http://www.w3.org/2000/svg" xmlns:xlink="http://www.w3.org/1999/xlink" xml:space="preserve" xmlns:serif="http://www.serif.com/" style="fill-rule:evenodd;clip-rule:evenodd;stroke-linejoin:round;stroke-miterlimit:2;">
    <g transform="matrix(1,0,0,1,259.722,127.874)">
        <path d="M2392.79,2931.76C2320.25,2852.43 2205.12,2828.36 2106.86,2871.97C1921.28,2954.27 1715.94,3000 1500,3000C672.127,3000 0,2327.87 0,1500C0,672.127 672.127,0 1500,0C2327.87,0 3000,672.127 3000,1500C3000,1804.92 2908.82,2088.71 2752.26,2325.58C2689.63,2420.6 2699.11,2545.93 2775.3,2630.45C2946.49,2820.47 3238.09,3143.96 3418.99,3344.65C3507.38,3442.71 3499.68,3593.82 3401.79,3682.39C3401.79,3682.39 3401.78,3682.39 3401.78,3682.39C3304.14,3770.74 3153.48,3763.6 3064.62,3666.43C2875.89,3460.05 2566.54,3121.76 2392.79,2931.76ZM1500,400C2107.11,400 2600,892.893 2600,1500C2600,2107.11 2107.11,2600 1500,2600C892.893,2600 400,2107.11 400,1500C400,892.893 892.893,400 1500,400Z" style="fill:white;"/>
    </g>
</svg>
