<?xml version="1.0" encoding="UTF-8" standalone="no"?><!DOCTYPE svg PUBLIC "-//W3C//DTD SVG 1.1//EN" "http://www.w3.org/Graphics/SVG/1.1/DTD/svg11.dtd"><svg width="100%" height="100%" viewBox="0 0 4096 4096" version="1.1" xmlns="http://www.w3.org/2000/svg" xmlns:xlink="http://www.w3.org/1999/xlink" xml:space="preserve" xmlns:serif="http://www.serif.com/" style="fill-rule:evenodd;clip-rule:evenodd;stroke-linecap:round;stroke-linejoin:round;stroke-miterlimit:1.5;"><path d="M-202.772,-135.182c797.571,-714.209 3892.1,-684.919 4650.24,40.555c758.143,725.474 696.185,3598.08 -101.386,4312.29c-797.571,714.209 -3925.9,698.438 -4684.04,-27.036c-758.143,-725.474 -662.389,-3611.6 135.182,-4325.81Z" style="fill:#404040;stroke:#4f4f4f;stroke-width:50px;"/><path d="M3548,-87.868c388.647,140.814 -1128.34,519.322 -1500,790.812c-299.168,218.534 -465.25,660.136 -729.98,838.125c-245.817,165.273 -589.839,104.851 -858.403,229.809c-304.158,141.52 -842.631,938.113 -966.548,619.31c-123.916,-318.803 -452.772,-2119.12 223.05,-2532.13c675.822,-413.009 3443.23,-86.741 3831.88,54.073Z" style="fill:#595959;"/><path d="M4427.19,1737.08c-190.381,-314.298 -794.192,453.984 -1142.28,588.039c-301.941,116.282 -658.444,68.488 -946.271,216.291c-333.447,171.229 -728.853,611.696 -1054.42,811.089c-278.013,170.271 -684.919,230.935 -898.957,385.267c-179.513,129.439 -605.079,514.996 -385.267,540.726c673.655,78.856 3689.33,355.978 4427.19,-67.591c715.152,-410.53 190.38,-2159.52 0,-2473.82Z" style="fill:#6b6b6b;"/><path id="virus" d="M1687.29,850.921c36.637,-11.04 73.974,-20.44 111.929,-28.117c-0.804,-8.149 -1.217,-16.429 -1.217,-24.804c0,-137.979 112.021,-250 250,-250c137.979,0 250,112.021 250,250c0,8.375 -0.413,16.655 -1.217,24.804c37.959,7.68 75.297,17.083 111.927,28.122l-0.008,0.021c80.59,24.265 157.76,56.477 230.616,95.716l0.006,-0.015c-72.86,-39.229 -150.031,-71.437 -230.614,-95.722l2.159,-5.611c26.401,-63.738 99.583,-94.05 163.321,-67.649c63.738,26.401 94.05,99.582 67.649,163.32l-2.515,5.662c33.94,18.274 66.948,38.074 98.929,59.306c5.259,-6.424 10.873,-12.633 16.854,-18.614c97.565,-97.566 255.987,-97.566 353.553,0c97.566,97.566 97.566,255.988 0,353.553c-5.981,5.981 -12.19,11.595 -18.614,16.854c21.233,31.977 41.035,64.984 59.311,98.927l-0.015,0.006c39.241,72.846 71.448,150.025 95.716,230.616l0.021,-0.008c-24.283,-80.585 -56.494,-157.763 -95.722,-230.614l5.657,-2.513c63.738,-26.401 136.919,3.911 163.32,67.649c26.401,63.738 -3.911,136.92 -67.649,163.321l-5.606,2.157c11.04,36.637 20.44,73.974 28.117,111.929c8.149,-0.804 16.429,-1.217 24.804,-1.217c137.979,0 250,112.021 250,250c0,137.979 -112.021,250 -250,250c-8.375,0 -16.655,-0.413 -24.804,-1.217c-7.68,37.959 -17.083,75.297 -28.122,111.927l5.611,2.159c63.738,26.401 94.05,99.583 67.649,163.321c-26.401,63.738 -99.582,94.05 -163.32,67.649l-5.662,-2.515c39.229,-72.86 71.437,-150.031 95.722,-230.614l-0.021,-0.008c-24.265,80.59 -56.477,157.76 -95.716,230.616l0.015,0.006c-18.274,33.94 -38.074,66.948 -59.306,98.929c6.424,5.259 12.633,10.873 18.614,16.854c97.566,97.565 97.566,255.987 0,353.553c-97.566,97.566 -255.988,97.566 -353.553,0c-5.981,-5.981 -11.595,-12.19 -16.854,-18.614c-31.977,21.233 -64.984,41.035 -98.927,59.311l2.513,5.657c26.401,63.738 -3.911,136.919 -67.649,163.32c-63.738,26.401 -136.92,-3.911 -163.321,-67.649l-2.157,-5.606c80.585,-24.283 157.763,-56.494 230.614,-95.722l-0.006,-0.015c-72.846,39.241 -150.025,71.448 -230.616,95.716l0.008,0.021c-36.637,11.04 -73.974,20.44 -111.929,28.117c0.804,8.149 1.217,16.429 1.217,24.804c0,137.979 -112.021,250 -250,250c-137.979,0 -250,-112.021 -250,-250c0,-8.375 0.413,-16.655 1.217,-24.804c-37.959,-7.68 -75.297,-17.083 -111.927,-28.122l0.008,-0.021c-80.59,-24.265 -157.76,-56.477 -230.616,-95.716l-0.006,0.015c72.86,39.229 150.031,71.437 230.614,95.722l-2.159,5.611c-26.401,63.738 -99.583,94.05 -163.321,67.649c-63.738,-26.401 -94.05,-99.582 -67.649,-163.32l2.515,-5.662c-33.94,-18.274 -66.948,-38.074 -98.929,-59.306c-5.259,6.424 -10.873,12.633 -16.854,18.614c-97.565,97.566 -255.987,97.566 -353.553,0c-97.566,-97.566 -97.566,-255.988 0,-353.553c5.981,-5.981 12.19,-11.595 18.614,-16.854c-21.233,-31.977 -41.035,-64.984 -59.311,-98.927l0.015,-0.006c-39.241,-72.846 -71.448,-150.025 -95.716,-230.616l-0.021,0.008c24.283,80.585 56.494,157.763 95.722,230.614l-5.657,2.513c-63.738,26.401 -136.919,-3.911 -163.32,-67.649c-26.401,-63.738 3.911,-136.92 67.649,-163.321l5.606,-2.157c-11.04,-36.637 -20.44,-73.974 -28.117,-111.929c-8.149,0.804 -16.429,1.217 -24.804,1.217c-137.979,0 -250,-112.021 -250,-250c0,-137.979 112.021,-250 250,-250c8.375,0 16.655,0.413 24.804,1.217c7.68,-37.959 17.083,-75.297 28.122,-111.927l-5.611,-2.159c-63.738,-26.401 -94.05,-99.583 -67.649,-163.321c26.401,-63.738 99.582,-94.05 163.32,-67.649l5.662,2.515c-39.229,72.86 -71.437,150.031 -95.722,230.614l0.021,0.008c24.265,-80.59 56.477,-157.76 95.716,-230.616l-0.015,-0.006c18.274,-33.94 38.074,-66.948 59.306,-98.929c-6.424,-5.259 -12.633,-10.873 -18.614,-16.854c-97.566,-97.565 -97.566,-255.987 0,-353.553c97.566,-97.566 255.988,-97.566 353.553,0c5.981,5.981 11.595,12.19 16.854,18.614c31.977,-21.233 64.984,-41.035 98.927,-59.311l-2.513,-5.657c-26.401,-63.738 3.911,-136.919 67.649,-163.32c63.738,-26.401 136.92,3.911 163.321,67.649l2.157,5.606c-80.585,24.283 -157.763,56.494 -230.614,95.722l0.006,0.015c72.846,-39.241 150.025,-71.448 230.616,-95.716l-0.008,-0.021Zm-10.425,1539.27c137.979,0 250,112.021 250,250c0,137.979 -112.021,250 -250,250c-137.978,0 -250,-112.021 -250,-250c0,-137.979 112.022,-250 250,-250Zm1050.13,-423.489c137.979,0 250,112.021 250,250c0,137.978 -112.021,250 -250,250c-137.979,0 -250,-112.022 -250,-250c0,-137.979 112.021,-250 250,-250Zm-863.822,-844.145c137.978,0 250,112.021 250,250c0,137.978 -112.022,250 -250,250c-137.979,0 -250,-112.022 -250,-250c0,-137.979 112.021,-250 250,-250Z" style="fill:none;stroke:url(#_Linear1);stroke-width:50px;"/><defs><linearGradient id="_Linear1" x1="0" y1="0" x2="1" y2="0" gradientUnits="userSpaceOnUse" gradientTransform="matrix(3000,0,0,3000,548,2048)"><stop offset="0" style="stop-color:#ff2300;stop-opacity:1"/><stop offset="0.4" style="stop-color:#ff3f00;stop-opacity:1"/><stop offset="1" style="stop-color:#ff6c00;stop-opacity:1"/></linearGradient></defs></svg>